<?xml version="1.0" standalone="no"?>
<!DOCTYPE svg PUBLIC "-//W3C//DTD SVG 20010904//EN"
 "http://www.w3.org/TR/2001/REC-SVG-20010904/DTD/svg10.dtd">
<svg version="1.0" xmlns="http://www.w3.org/2000/svg"
 width="330.000000pt" height="330.000000pt" viewBox="0 0 330.000000 330.000000"
 preserveAspectRatio="xMidYMid meet">
<metadata>
Created by potrace 1.11, written by Peter Selinger 2001-2013
</metadata>
<g transform="translate(0.000000,330.000000) scale(0.100000,-0.100000)"
fill="#000000" stroke="none">
<path d="M2002 3129 c7 -4 9 -12 4 -16 -7 -7 -275 -8 -379 -1 -26 2 -47 0 -47
-5 0 -4 -72 -6 -160 -5 -126 2 -160 6 -160 16 0 11 -16 13 -72 9 -100 -6 -162
-22 -152 -38 3 -6 -2 -21 -11 -36 -10 -15 -15 -37 -13 -55 6 -35 -23 -103 -47
-112 -9 -3 -15 -12 -12 -19 5 -13 -23 -67 -35 -67 -4 0 -8 -10 -8 -23 0 -13
-3 -27 -6 -30 -4 -3 -8 -23 -10 -44 -4 -42 -7 -769 -4 -883 0 -8 2 -271 5
-585 2 -314 6 -623 9 -688 4 -109 6 -120 31 -149 15 -17 48 -43 73 -56 26 -14
63 -42 82 -64 20 -21 41 -38 47 -38 7 0 16 -6 20 -14 4 -8 19 -17 33 -19 14
-2 32 -7 40 -10 15 -6 64 -14 130 -22 51 -6 278 -18 330 -18 54 1 204 12 240
18 14 2 43 6 65 10 50 7 82 13 103 19 9 3 30 7 46 10 16 3 33 11 38 18 4 7 8
9 8 4 0 -6 7 -1 16 10 8 10 12 12 8 4 -7 -13 -5 -13 9 -1 9 7 15 16 13 20 -8
12 28 48 87 86 111 72 113 80 110 530 -1 198 -2 621 -1 940 0 745 -1 812 -13
860 -5 22 -40 103 -77 180 -56 118 -67 148 -66 191 0 50 -1 52 -35 64 -37 14
-260 22 -239 9z"/>
</g>
</svg>
