<?xml version="1.0" standalone="no"?>
<!DOCTYPE svg PUBLIC "-//W3C//DTD SVG 20010904//EN"
 "http://www.w3.org/TR/2001/REC-SVG-20010904/DTD/svg10.dtd">
<svg version="1.0" xmlns="http://www.w3.org/2000/svg"
 width="310.000000pt" height="310.000000pt" viewBox="0 0 310.000000 310.000000"
 preserveAspectRatio="xMidYMid meet">
<metadata>
Created by potrace 1.11, written by Peter Selinger 2001-2013
</metadata>
<g transform="translate(0.000000,310.000000) scale(0.100000,-0.100000)"
fill="#000000" stroke="none">
<path d="M1011 3028 c-67 -9 -95 -26 -85 -52 3 -9 1 -23 -6 -31 -7 -8 -10 -29
-8 -47 5 -34 -20 -92 -50 -114 -8 -6 -12 -16 -8 -22 3 -6 -5 -24 -19 -40 -14
-16 -25 -39 -25 -50 0 -12 -5 -24 -11 -27 -6 -4 -8 -13 -5 -20 5 -13 -1 -38
-19 -90 -5 -15 -4 -16 3 -6 7 10 9 -26 7 -115 -1 -71 -2 -138 -2 -149 0 -21
-1 -293 -1 -310 -1 -5 1 -80 4 -165 3 -85 5 -207 5 -270 -1 -182 0 -260 3
-330 2 -36 -1 -73 -5 -82 -5 -9 -5 -19 -1 -22 5 -3 10 -158 10 -345 2 -372 5
-406 33 -437 10 -11 19 -26 19 -32 0 -7 7 -12 15 -12 25 0 66 -30 125 -90 61
-62 105 -79 251 -99 283 -38 723 -11 846 52 29 16 61 46 62 60 1 17 18 34 67
65 67 42 88 67 108 128 15 46 16 106 11 590 -5 469 -5 714 -1 1424 1 171 -8
212 -82 358 -69 137 -87 190 -71 218 31 58 -25 75 -242 72 -116 -1 -143 -3
-94 -7 l70 -6 -54 -9 c-63 -10 -351 2 -351 15 0 5 -5 9 -11 9 -5 0 -8 -4 -5
-9 3 -5 -1 -12 -10 -15 -27 -10 -329 -7 -318 3 5 6 34 12 64 14 30 2 8 4 -50
4 -58 0 -134 -4 -169 -9z m259 -38 c0 -5 -9 -10 -20 -10 -11 0 -20 5 -20 10 0
6 9 10 20 10 11 0 20 -4 20 -10z m769 5 c-3 -2 -21 -6 -39 -9 -19 -2 -48 -9
-65 -16 -24 -9 -31 -8 -41 4 -11 16 -54 22 -54 8 0 -4 -117 -8 -260 -7 -187 0
-260 3 -260 11 0 9 99 12 362 13 199 1 359 -1 357 -4z m-739 -31 c0 -8 -4 -12
-10 -9 -5 3 -10 10 -10 16 0 5 5 9 10 9 6 0 10 -7 10 -16z m575 6 c3 -5 -1
-10 -10 -10 -9 0 -13 5 -10 10 3 6 8 10 10 10 2 0 7 -4 10 -10z m-548 -586
c-3 -3 -12 -4 -19 -1 -8 3 -5 6 6 6 11 1 17 -2 13 -5z m73 2 c0 -3 -4 -8 -10
-11 -5 -3 -10 -1 -10 4 0 6 5 11 10 11 6 0 10 -2 10 -4z m-73 -42 c-3 -3 -12
-4 -19 -1 -8 3 -5 6 6 6 11 1 17 -2 13 -5z m498 -2254 c-3 -5 -12 -10 -18 -10
-7 0 -6 4 3 10 19 12 23 12 15 0z m-52 -7 c-13 -2 -33 -2 -45 0 -13 2 -3 4 22
4 25 0 35 -2 23 -4z m-305 -10 c-16 -2 -40 -2 -55 0 -16 2 -3 4 27 4 30 0 43
-2 28 -4z m59 1 c-3 -3 -12 -4 -19 -1 -8 3 -5 6 6 6 11 1 17 -2 13 -5z m161
-1 c-10 -2 -26 -2 -35 0 -10 3 -2 5 17 5 19 0 27 -2 18 -5z"/>
</g>
</svg>
